# Blender v2.82 (sub 7) OBJ File: ''
# www.blender.org
mtllib CubeOco_Textured.mtl
o Cube
v 0.764540 1.000000 -0.764540
v 1.000000 -1.000000 -1.000000
v 0.764540 1.000000 0.764540
v 1.000000 -1.000000 1.000000
v -0.764540 1.000000 -0.764540
v -1.000000 -1.000000 -1.000000
v -0.764540 1.000000 0.764540
v -1.000000 -1.000000 1.000000
v 1.000000 1.000000 1.000000
v -1.000000 1.000000 1.000000
v 1.000000 1.000000 -1.000000
v -1.000000 1.000000 -1.000000
v 1.000000 1.000000 1.000000
v -1.000000 1.000000 1.000000
v 1.000000 1.000000 -1.000000
v -1.000000 1.000000 -1.000000
v 1.000000 1.000000 1.000000
v -1.000000 1.000000 1.000000
v 1.000000 1.000000 -1.000000
v -1.000000 1.000000 -1.000000
v 1.000000 1.000000 1.000000
v -1.000000 1.000000 1.000000
v 1.000000 1.000000 -1.000000
v -1.000000 1.000000 -1.000000
v 0.764540 -0.688786 0.764540
v -0.764540 -0.688786 0.764540
v 0.764540 -0.688786 -0.764540
v -0.764540 -0.688786 -0.764540
v 0.764540 -1.295780 0.764540
v -0.764540 -1.295780 0.764540
v 0.764540 -1.295780 -0.764540
v -0.764540 -1.295780 -0.764540
v 0.764540 1.000000 -0.764540
v 0.764540 1.000000 0.764540
v -0.764540 1.000000 -0.764540
v -0.764540 1.000000 0.764540
vt 0.845568 0.720568
vt 0.654433 0.720568
vt 0.654433 0.720568
vt 0.845568 0.720568
vt 0.375000 0.750000
vt 0.625000 0.750000
vt 0.625000 1.000000
vt 0.375000 1.000000
vt 0.375000 0.000000
vt 0.625000 0.000000
vt 0.625000 0.250000
vt 0.375000 0.250000
vt 0.125000 0.500000
vt 0.375000 0.500000
vt 0.125000 0.750000
vt 0.625000 0.500000
vt 0.625000 0.750000
vt 0.875000 0.750000
vt 0.875000 0.750000
vt 0.625000 0.500000
vt 0.875000 0.500000
vt 0.875000 0.500000
vt 0.625000 0.750000
vt 0.875000 0.750000
vt 0.625000 0.500000
vt 0.875000 0.500000
vt 0.625000 0.750000
vt 0.875000 0.750000
vt 0.625000 0.500000
vt 0.875000 0.500000
vt 0.654433 0.529433
vt 0.845568 0.529433
vt 0.654433 0.529433
vt 0.845568 0.529433
vt 0.845568 0.529433
vt 0.654433 0.529433
vt 0.845568 0.720568
vt 0.654433 0.720568
vt 0.654433 0.720568
vt 0.845568 0.720568
vt 0.654433 0.529433
vt 0.845568 0.529433
vn 0.0000 0.0000 -1.0000
vn 0.0000 0.0000 1.0000
vn -1.0000 0.0000 0.0000
vn 0.0000 -1.0000 0.0000
vn 1.0000 0.0000 0.0000
vn 0.0000 1.0000 0.0000
usemtl Material
s off
f 7/1/1 3/2/1 25/3/1 26/4/1
f 4/5/2 9/6/2 10/7/2 8/8/2
f 8/9/3 10/10/3 12/11/3 6/12/3
f 6/13/4 2/14/4 4/5/4 8/15/4
f 2/14/5 11/16/5 9/6/5 4/5/5
f 6/12/1 12/11/1 11/16/1 2/14/1
f 13/17/2 14/18/2 10/19/2 9/6/2
f 15/20/2 13/17/2 9/6/2 11/16/2
f 14/18/2 16/21/2 12/22/2 10/19/2
f 16/21/2 15/20/2 11/16/2 12/22/2
f 17/23/2 18/24/2 14/18/2 13/17/2
f 19/25/2 17/23/2 13/17/2 15/20/2
f 18/24/2 20/26/2 16/21/2 14/18/2
f 20/26/2 19/25/2 15/20/2 16/21/2
f 21/27/2 22/28/2 18/24/2 17/23/2
f 23/29/2 21/27/2 17/23/2 19/25/2
f 22/28/2 24/30/2 20/26/2 18/24/2
f 24/30/2 23/29/2 19/25/2 20/26/2
f 3/2/6 7/1/6 22/28/6 21/27/6
f 1/31/6 3/2/6 21/27/6 23/29/6
f 7/1/6 5/32/6 24/30/6 22/28/6
f 5/32/6 1/31/6 23/29/6 24/30/6
f 27/33/2 28/34/2 32/35/2 31/36/2
f 1/31/2 5/32/2 28/34/2 27/33/2
f 3/2/3 1/31/3 27/33/3 25/3/3
f 5/32/5 7/1/5 26/4/5 28/34/5
f 31/36/6 32/35/6 30/37/6 29/38/6
f 25/3/3 27/33/3 31/36/3 29/38/3
f 28/34/5 26/4/5 30/37/5 32/35/5
f 26/4/1 25/3/1 29/38/1 30/37/1
f 7/1/2 3/2/2 34/39/2 36/40/2
f 5/32/2 1/31/2 33/41/2 35/42/2
f 1/31/2 3/2/2 34/39/2 33/41/2
f 7/1/2 5/32/2 35/42/2 36/40/2
f 34/39/6 33/41/6 35/42/6 36/40/6
